<?xml version="1.0" encoding="UTF-8"?>
<svg version="1.1" xmlns="http://www.w3.org/2000/svg" width="2000" height="342">
<path d="M0 0 C5.77111283 5.65795376 9.29066287 12.11154363 12.30859375 19.53125 C12.69068497 20.44698792 13.07277618 21.36272583 13.46644592 22.30621338 C17.33560812 31.64037437 21.01554726 41.05025875 24.67279053 50.46899414 C26.99822325 56.45258221 29.33897554 62.43015942 31.68359375 68.40625 C31.94907013 69.08296753 32.21454651 69.75968506 32.48806763 70.45690918 C41.66553756 93.83472902 51.03232025 117.13785432 60.3671875 140.453125 C60.81863506 141.58078781 61.27008263 142.70845062 61.73521042 143.87028503 C65.68105932 153.72649354 69.62738566 163.58251057 73.5761261 173.43756104 C77.65722882 183.62321151 81.73558352 193.80993947 85.80566406 204 C86.56018759 205.8885511 87.31471428 207.77710094 88.06924438 209.66564941 C89.46892285 213.16910162 90.86750268 216.6729897 92.26547241 220.17712402 C92.88348342 221.72421892 93.50153313 223.27129835 94.11962891 224.81835938 C94.39888844 225.51928711 94.67814796 226.22021484 94.9658699 226.94238281 C96.38169286 230.49072651 96.38169286 230.49072651 97.9921875 233.953125 C100.9621875 233.623125 103.9321875 233.293125 106.9921875 232.953125 C106.99577003 231.21568858 106.99577003 231.21568858 106.99942493 229.44315243 C107.05679778 201.94117554 107.12953756 174.43927419 107.22117378 146.93738922 C107.2324418 143.55160295 107.24358028 140.16581626 107.25463867 136.7800293 C107.25684236 136.10598653 107.25904604 135.43194377 107.2613165 134.73747546 C107.29667875 123.82671975 107.32154893 112.91596411 107.34253452 102.00517236 C107.36430513 90.80780326 107.39758971 79.61050101 107.44088906 68.41319233 C107.46484201 62.12462032 107.48355726 55.83613056 107.48980141 49.54751396 C107.49584279 43.62878152 107.51580876 37.71025957 107.54646301 31.791605 C107.55525835 29.61922033 107.55896273 27.44680818 107.55719566 25.27440643 C107.55554434 22.30760752 107.57223069 19.34145136 107.59346008 16.3747406 C107.58618872 15.08629396 107.58618872 15.08629396 107.57877046 13.7718181 C107.65675391 7.16484095 109.01962159 2.58321288 113.0546875 -2.796875 C120.82050521 -8.74516091 130.54891299 -9.00074111 139.9921875 -8.046875 C145.33415266 -6.83368145 149.59977653 -5.40532473 153.5546875 -1.546875 C154.0290625 -0.721875 154.5034375 0.103125 154.9921875 0.953125 C155.34652977 1.5596529 155.70087203 2.16618081 156.06595194 2.79108834 C157.16789851 5.36327299 157.24504828 7.25061307 157.24945641 10.04571152 C157.2559053 11.07982721 157.26235419 12.1139429 157.2689985 13.17939544 C157.2643527 14.881314 157.2643527 14.881314 157.25961304 16.61761475 C157.26414415 17.82411942 157.26867526 19.03062409 157.27334368 20.27368951 C157.28382705 23.62414408 157.28531129 26.97438427 157.28295493 30.32484007 C157.28254717 33.93778749 157.29358206 37.55070277 157.30307007 41.16363525 C157.31969076 48.24310999 157.32518012 55.32255142 157.32629482 62.40204403 C157.32724491 68.15703412 157.33135326 73.91201321 157.33769608 79.66699982 C157.3553124 95.98275591 157.36453448 112.29848568 157.36303513 128.61425135 C157.36295522 129.49403864 157.3628753 130.37382593 157.36279297 131.28027344 C157.36271121 132.16113492 157.36262945 133.0419964 157.36254521 133.94955066 C157.36173248 148.22202762 157.38086575 162.49439901 157.4090697 176.76684543 C157.43779946 191.42101904 157.45160991 206.07514117 157.44988215 220.72934365 C157.44921822 228.95679191 157.45471172 237.18412953 157.47623825 245.41155243 C157.49445141 252.41755906 157.49879644 259.42340492 157.4852194 266.42942497 C157.47868999 270.00312666 157.47857109 273.57651993 157.4959259 277.15019226 C157.5145597 281.02717113 157.50210102 284.90369987 157.48666382 288.78070068 C157.49695094 289.90639017 157.50723807 291.03207965 157.51783693 292.19188094 C157.4456772 300.38687489 155.8827801 306.22814503 150.0546875 312.140625 C136.98545717 322.4777102 118.83188503 323.1380659 102.9921875 321.953125 C94.9540959 320.81602023 87.78958156 317.6782023 81.9921875 311.953125 C81.10893799 311.10266602 80.22568848 310.25220703 79.31567383 309.37597656 C74.21551398 303.35313514 71.80422089 295.58637943 68.9375 288.33203125 C68.24582782 286.61109118 67.55301419 284.89060952 66.85916138 283.17054749 C64.95645702 278.44236552 63.07189038 273.70714485 61.19129944 268.97013092 C59.56238408 264.87172515 57.924801 260.77680361 56.28752995 256.68173027 C51.39320201 244.4383204 46.52423939 232.18490359 41.66079712 219.92919922 C36.92512221 207.99569835 32.18085947 196.06561286 27.43359375 184.13671875 C26.97196775 182.9767123 26.51034176 181.81670586 26.0347271 180.6215477 C17.52349424 159.23976257 8.91726001 137.89947307 0.17767334 116.60997009 C-1.2089812 113.23197948 -2.59377611 109.85323367 -3.97650146 106.47363281 C-4.70094672 104.70310009 -5.42633095 102.93295142 -6.15240479 101.16308594 C-7.29332532 98.37656232 -8.42687321 95.58714581 -9.55859375 92.796875 C-9.9064946 91.95024292 -10.25439545 91.10361084 -10.61283875 90.23132324 C-10.92791885 89.45051392 -11.24299896 88.66970459 -11.56762695 87.86523438 C-11.84669388 87.17989624 -12.1257608 86.49455811 -12.4132843 85.78845215 C-13.0078125 83.953125 -13.0078125 83.953125 -13.0078125 80.953125 C-16.6378125 81.283125 -20.2678125 81.613125 -24.0078125 81.953125 C-24.00412533 83.11564789 -24.00043816 84.27817078 -23.99663925 85.47592163 C-23.90997153 113.08390888 -23.84403228 140.69188248 -23.80355118 168.29997772 C-23.79854847 171.6994971 -23.79337117 175.0990162 -23.78808594 178.49853516 C-23.7870367 179.17530623 -23.78598745 179.8520773 -23.78490642 180.54935658 C-23.7675104 191.50152581 -23.73597718 202.4536109 -23.69920132 213.40573025 C-23.66176947 224.64712442 -23.63987124 235.88847661 -23.63145852 247.12993622 C-23.6262432 253.44264479 -23.6139829 259.75516261 -23.58489227 266.06781006 C-23.55772938 272.01032301 -23.54936942 277.95256675 -23.55538177 283.89513588 C-23.55428195 286.07519303 -23.54633349 288.25525924 -23.5309906 290.43526268 C-23.51104945 293.41493494 -23.51588879 296.39359466 -23.52679443 299.37329102 C-23.50931738 300.66320481 -23.50931738 300.66320481 -23.49148726 301.97917747 C-23.54777047 307.67986347 -24.64985933 312.25347111 -28.0078125 316.953125 C-35.56871105 323.17605382 -45.63534335 323.73717969 -55.0078125 322.953125 C-60.78960643 321.85450396 -65.8772398 320.33403544 -70.0078125 315.953125 C-74.52791013 308.52725032 -74.15354431 300.89717599 -74.14152527 292.47918701 C-74.14379083 291.3173037 -74.14605638 290.15542038 -74.14839059 288.95832849 C-74.15361956 285.74173144 -74.15437653 282.52516961 -74.15319622 279.30856967 C-74.15299188 275.83605472 -74.15851416 272.36354806 -74.16325378 268.89103699 C-74.17155396 262.09057265 -74.17430835 255.29011699 -74.17486616 248.48964801 C-74.17534166 242.96022236 -74.17739812 237.43079957 -74.18056679 231.90137482 C-74.18937196 216.21628329 -74.19398643 200.53119861 -74.19323631 184.84610459 C-74.19319636 184.00083051 -74.1931564 183.15555642 -74.19311523 182.28466797 C-74.19307435 181.43835887 -74.19303347 180.59204978 -74.19299135 179.72009495 C-74.19258502 166.00848437 -74.20215181 152.29690126 -74.2162536 138.58529863 C-74.23062684 124.49832385 -74.23752325 110.41136246 -74.23665982 96.32438016 C-74.23632816 88.41886564 -74.23906173 80.51337992 -74.24983788 72.60787201 C-74.25895539 65.87612492 -74.2611079 59.14441969 -74.25432845 52.41266909 C-74.25106943 48.98055763 -74.2509841 45.54852642 -74.2596817 42.11642265 C-74.26740471 38.38920952 -74.2627545 34.66220621 -74.25505066 30.93499756 C-74.26019422 29.85929843 -74.26533779 28.7835993 -74.27063721 27.67530322 C-74.22998044 18.75518639 -73.93252468 10.06277962 -68.0078125 2.953125 C-51.18071393 -11.95254017 -18.36879031 -12.65236179 0 0 Z " fill="#000000" transform="translate(376.0078125,12.046875)"/>
<path d="M0 0 C0.98621841 -0.0049649 1.97243683 -0.00992981 2.98854065 -0.01504517 C6.24220486 -0.02961553 9.49582028 -0.03646106 12.74951172 -0.04199219 C15.02147421 -0.04774884 17.29343669 -0.0535065 19.56539917 -0.05926514 C24.32826971 -0.06976125 29.09112344 -0.07561268 33.85400391 -0.07910156 C39.93306727 -0.08457646 46.01190556 -0.10858911 52.09089851 -0.13707352 C56.78545768 -0.15577387 61.47996348 -0.16090948 66.17455673 -0.16243744 C68.41426699 -0.16544894 70.65397665 -0.17342618 72.89365005 -0.18662262 C95.25183506 -0.30893311 95.25183506 -0.30893311 105.05419922 3.16113281 C105.75175827 3.38901489 106.44931732 3.61689697 107.16801453 3.85168457 C125.1114152 9.99785843 138.46094147 19.68426757 147.30810547 36.55175781 C152.27601537 47.03753074 153.21135601 58.42238634 153.18791199 69.88711548 C153.19017754 70.7172665 153.1924431 71.54741751 153.19477731 72.40272462 C153.20106089 75.15895984 153.2002916 77.91514517 153.19946289 80.67138672 C153.20245796 82.65820376 153.20586129 84.64502023 153.2096405 86.63183594 C153.21845058 92.01230696 153.22081739 97.39276207 153.22145629 102.77323961 C153.22216864 106.1408546 153.22430649 109.50846557 153.22695351 112.87607956 C153.23619794 124.64216111 153.24028964 136.40823135 153.23950195 148.17431641 C153.23890182 159.11291935 153.24944334 170.05147287 153.26524562 180.99006331 C153.27835745 190.4044164 153.2836843 199.81875341 153.28304654 209.23311555 C153.28279257 214.84552841 153.28558768 220.45789735 153.29622459 226.07030106 C153.30596674 231.35464929 153.30594316 236.63891216 153.29870796 241.92326355 C153.29766959 243.85204062 153.29998003 245.78082317 153.30606842 247.70959091 C153.37168043 269.95326948 151.63004769 289.53074489 135.92919922 306.78613281 C117.29465294 324.50148623 93.35777584 327.79905299 68.96044922 327.69238281 C66.75720041 327.69508535 64.55395278 327.69897406 62.35070801 327.70397949 C57.75842812 327.70983869 53.16646184 327.70142785 48.57421875 327.68261719 C42.73109207 327.65983022 36.8887007 327.67297264 31.04560089 327.69690704 C26.50354621 327.71146231 21.96166166 327.70671473 17.41960144 327.69639587 C15.26694142 327.69375539 13.11426521 327.69690229 10.96162415 327.70631409 C-4.56679777 327.75933242 -19.35791167 326.95088332 -33.32080078 319.34863281 C-33.98088135 319.00171387 -34.64096191 318.65479492 -35.32104492 318.29736328 C-50.49907436 310.16156817 -61.1694552 299.85332346 -66.94189453 283.30566406 C-70.58141945 270.95914174 -70.09489882 258.25983547 -70.09106445 245.52148438 C-70.09406014 243.53289731 -70.09746362 241.54431083 -70.10124207 239.5557251 C-70.1100445 234.17538043 -70.11241859 228.79505168 -70.11305785 223.41470051 C-70.11377048 220.04725544 -70.11590884 216.67981437 -70.11855507 213.3123703 C-70.12779604 201.54743698 -70.13189152 189.78251496 -70.13110352 178.01757812 C-70.13050305 167.07836641 -70.14105198 156.13920405 -70.15684718 145.20000482 C-70.16995387 135.78479795 -70.1752861 126.36960715 -70.17464811 116.95439124 C-70.17439404 111.34146623 -70.17719457 105.72858512 -70.18782616 100.11566925 C-70.19755993 94.83295241 -70.19755035 89.55032099 -70.19030952 84.26760101 C-70.18927022 82.33840306 -70.19158727 80.40919963 -70.19766998 78.48001099 C-70.2599108 57.35715738 -68.60768293 37.23361651 -53.68017578 20.80566406 C-39.38906081 7.25485459 -19.42057046 0.02352814 0 0 Z M-11.94580078 48.16113281 C-17.82456163 55.95865588 -20.25412801 63.65350886 -20.21322632 73.40777588 C-20.21775743 74.21045544 -20.22228854 75.01313501 -20.22695696 75.8401382 C-20.23956227 78.51522969 -20.2379831 81.19011657 -20.23632812 83.86523438 C-20.24231583 85.78928386 -20.24912193 87.71333094 -20.25668335 89.63737488 C-20.27432683 94.8544876 -20.27903806 100.07153468 -20.28031492 105.28867435 C-20.28173812 108.55139152 -20.28601095 111.81409208 -20.29130936 115.07680511 C-20.30980484 126.46869463 -20.31798065 137.86053738 -20.31640625 149.25244141 C-20.31520529 159.85600467 -20.33629999 170.45936425 -20.36789358 181.06287599 C-20.3940835 190.17904687 -20.40477239 199.29515135 -20.40349543 208.41135955 C-20.40298656 213.85046666 -20.40862841 219.28939272 -20.42985153 224.72846222 C-20.44927938 229.84706073 -20.44932725 234.96530634 -20.43481827 240.08391762 C-20.43273465 241.95632508 -20.43740424 243.82875489 -20.44953918 245.70112419 C-20.52792422 258.639623 -19.9082482 269.23470909 -11.11767578 279.50488281 C-5.41922809 283.85046163 0.72549064 284.60502928 7.63818359 284.54931641 C8.45555496 284.55457336 9.27292633 284.55983032 10.11506653 284.56524658 C12.79289367 284.57835385 15.47011697 284.56974169 18.14794922 284.55957031 C20.02307244 284.56159372 21.89819489 284.56450737 23.77331543 284.56826782 C27.69368011 284.57267862 31.61383902 284.5663003 35.53417969 284.55224609 C40.54421113 284.535155 45.55376033 284.54500286 50.56377411 284.56296349 C54.43295892 284.573835 58.30203054 284.57033955 62.17121887 284.56258011 C64.01788898 284.56058741 65.86456956 284.56300449 67.71122742 284.57001877 C70.29783115 284.57768892 72.88366783 284.56595189 75.47021484 284.54931641 C76.60043816 284.55842545 76.60043816 284.55842545 77.75349426 284.56771851 C83.82297426 284.49587161 89.28964585 283.26935337 94.22607422 279.50488281 C103.67911119 268.46074061 103.63739046 256.81130377 103.57177734 243.00292969 C103.57720542 241.07828748 103.5843319 239.15364943 103.59301758 237.22901917 C103.61117232 232.02857993 103.6042159 226.82845996 103.59150124 221.62801552 C103.58133278 216.17058107 103.59077756 210.71317289 103.5970459 205.2557373 C103.60431113 196.09313072 103.59476413 186.93065335 103.57568359 177.76806641 C103.55391709 167.19393734 103.56096925 156.62011683 103.58298922 146.04599524 C103.60117527 136.94671165 103.60368587 127.84752064 103.59323454 118.74822474 C103.58701723 113.32261254 103.58611534 107.8971451 103.59938049 102.47154236 C103.61098507 97.36927372 103.60282933 92.26740066 103.57980347 87.16517448 C103.57454093 85.29922579 103.57598778 83.43324347 103.58485413 81.56730843 C103.63989509 68.80116614 103.27308333 57.49697713 93.90576172 47.75097656 C85.16280519 40.24383878 71.91249929 41.99843503 61.12841797 41.99316406 C59.57436595 41.98994436 58.02031423 41.98657977 56.46626282 41.983078 C53.2176544 41.9771123 49.96907249 41.97523546 46.72045898 41.97583008 C42.58520116 41.97593155 38.45011558 41.96228305 34.31489849 41.94505787 C31.10701233 41.93386624 27.89916687 41.93191306 24.6912632 41.9324398 C23.16804219 41.93127032 21.64481976 41.92690745 20.12161827 41.91910744 C3.02499992 41.26874755 3.02499992 41.26874755 -11.94580078 48.16113281 Z " fill="#000000" transform="translate(88.94580078125,5.8388671875)"/>
<path d="M0 0 C2.22566903 -0.00270243 4.45133691 -0.00659104 6.67700195 -0.01159668 C11.31635909 -0.01745641 15.95540583 -0.00904327 20.59472656 0.00976562 C26.4983848 0.0325526 32.40131526 0.01941048 38.3049469 -0.00452423 C42.89332418 -0.01907803 47.48153302 -0.01433257 52.06991577 -0.00401306 C54.24490447 -0.00137217 56.4199092 -0.00452095 58.59487915 -0.01393127 C74.53581008 -0.06779048 89.10877869 1.07834293 103.625 8.34375 C104.33317871 8.68849365 105.04135742 9.0332373 105.77099609 9.38842773 C111.2980114 12.15956061 116.11170931 15.35377655 120.6875 19.53125 C121.28433594 20.00304687 121.88117188 20.47484375 122.49609375 20.9609375 C126.82408564 24.68166104 129.35463587 29.1489469 131.9375 34.15625 C132.43165405 35.09585571 132.43165405 35.09585571 132.93579102 36.05444336 C139.09256764 48.64978208 139.19234598 61.57796754 139.13354492 75.29858398 C139.12496752 78.35532582 139.15399559 81.41023541 139.18554688 84.46679688 C139.18715775 86.43229111 139.18658354 88.39778862 139.18359375 90.36328125 C139.19482773 91.26552933 139.20606171 92.1677774 139.21763611 93.09736633 C139.15245217 99.06178386 138.02482636 103.5314716 134.6875 108.53125 C132.72265625 110.37109375 132.72265625 110.37109375 130.75 111.46875 C129.77740234 112.03916016 129.77740234 112.03916016 128.78515625 112.62109375 C120.88442972 116.04915573 108.76508898 115.75035751 100.5625 113.46875 C96.13151363 111.66416091 93.03126069 108.68085908 90.6875 104.53125 C88.97638542 99.47580939 88.42873598 94.90704092 88.484375 89.61328125 C88.47382047 88.09569458 88.46206297 86.57811589 88.44921875 85.06054688 C88.43896383 82.70850747 88.4373814 80.35760115 88.45751953 78.00561523 C88.52933702 66.99784708 87.8111498 57.48499669 80.13500977 48.76831055 C71.53209427 41.60156939 57.73695888 43.23353813 47.25 43.265625 C45.67781515 43.26427394 44.10563071 43.26232975 42.53344727 43.25982666 C39.25565572 43.25689613 35.97797398 43.26110576 32.70019531 43.27050781 C28.52801265 43.2819011 24.35608744 43.27533044 20.18391418 43.26336288 C16.94256703 43.25608796 13.70127951 43.25845788 10.45993042 43.26361847 C8.92275969 43.26493944 7.38558329 43.26336261 5.84841919 43.25865936 C-10.87653482 42.6760186 -10.87653482 42.6760186 -25.46439457 49.55467701 C-33.99721638 58.68064182 -33.02068119 70.54917002 -32.94360352 82.16430664 C-32.94874872 84.13983298 -32.95603452 86.11535472 -32.96528625 88.09086609 C-32.98373048 93.42973332 -32.97090618 98.76809828 -32.95119596 104.10694432 C-32.93475275 109.70764913 -32.94363012 115.30832354 -32.94871521 120.90904236 C-32.95322945 130.3112689 -32.93740683 139.71329607 -32.90942383 149.11547852 C-32.87736577 159.97024379 -32.87739357 170.82464975 -32.8946386 181.67944056 C-32.91052657 192.14301797 -32.90375608 202.60646423 -32.88670158 213.07003593 C-32.87984697 217.51358998 -32.88084719 221.9570384 -32.88824654 226.4005909 C-32.8959327 231.63665555 -32.88370709 236.8723134 -32.85639763 242.10830879 C-32.84953752 244.02466118 -32.84939021 245.94105174 -32.85661316 247.8574028 C-32.89387181 259.0342017 -32.40188966 267.56414168 -26.625 277.40625 C-17.96857233 285.36080515 -6.93967678 284.11780041 4.0625 284.0625 C5.95621947 284.06519863 7.84993758 284.06908413 9.74365234 284.07409668 C13.70098135 284.07997427 17.65794773 284.07148507 21.61523438 284.05273438 C26.66898468 284.0299459 31.72188507 284.04307835 36.77560425 284.06702423 C40.68260008 284.08152937 44.58939686 284.07685466 48.49639893 284.06651306 C50.35898949 284.06385879 52.22159856 284.06706942 54.08416748 284.07643127 C69.16038328 284.4461304 69.16038328 284.4461304 82 277.40625 C87.7810371 267.55707568 88.25834042 258.55143149 88.25 247.40625 C88.28291008 226.7869874 88.28291008 226.7869874 93.9375 219.71875 C100.24847793 214.69865392 105.80587564 214.05066543 113.625 214.15625 C114.48029297 214.14464844 115.33558594 214.13304687 116.21679688 214.12109375 C122.72351738 214.15087279 128.57254123 214.93052541 133.74609375 219.25 C134.20113281 219.8378125 134.65617187 220.425625 135.125 221.03125 C135.59808594 221.6190625 136.07117187 222.206875 136.55859375 222.8125 C138.47737903 225.733834 138.81696759 228.29047759 138.84863281 231.6887207 C138.85824036 232.52421951 138.8678479 233.35971832 138.87774658 234.22053528 C138.8841214 235.57510078 138.8841214 235.57510078 138.890625 236.95703125 C138.89632507 237.89620895 138.90202515 238.83538666 138.90789795 239.80302429 C138.91735255 241.79778925 138.92388375 243.79256987 138.92773438 245.78735352 C138.93734128 248.79407471 138.96831815 251.80008278 139 254.80664062 C139.10668069 273.7630008 137.02228693 292.01236857 123.1640625 306.37890625 C102.93196883 323.96231889 81.00188874 328.01537787 54.9375 327.9296875 C52.74902245 327.93171339 50.56054557 327.9346291 48.37207031 327.93838501 C43.80657463 327.9427841 39.24125617 327.93645558 34.67578125 327.92236328 C28.85941454 327.90527308 23.04346333 327.91512727 17.22711182 327.93308067 C12.71432432 327.94398406 8.20163337 327.94044225 3.68884277 327.9326973 C1.54569447 327.93071337 -0.59746295 327.93309009 -2.74060059 327.94013596 C-27.65467146 328.00409354 -48.96653827 323.48307625 -67.6875 305.65625 C-79.06108255 293.68117991 -83.47038372 279.0370497 -83.45294189 262.74169922 C-83.45591302 261.86848683 -83.45888414 260.99527445 -83.4619453 260.09560108 C-83.47060221 257.17570344 -83.47213801 254.25584695 -83.47363281 251.3359375 C-83.47826322 249.23956719 -83.48328818 247.14319772 -83.48867798 245.04682922 C-83.50178502 239.35427761 -83.50824397 233.66173778 -83.51268864 227.96917343 C-83.51562292 224.40877881 -83.51972846 220.84838739 -83.52419281 217.28799438 C-83.53786508 206.13726727 -83.5475323 194.98654749 -83.5513947 183.83581257 C-83.55587085 170.98525118 -83.57339936 158.13479641 -83.6023953 145.28426743 C-83.62405412 135.33836018 -83.63410127 125.39248284 -83.63543582 115.44655228 C-83.6364811 109.51272734 -83.64232961 103.57900264 -83.66025543 97.64520264 C-83.67680813 92.05718464 -83.67885679 86.46934147 -83.67011642 80.8813076 C-83.66934982 78.83923052 -83.67363865 76.79714376 -83.68357468 74.75509071 C-83.77679762 54.38839146 -81.59762225 36.05130431 -66.67578125 20.703125 C-47.68820102 3.25338184 -24.72302806 -0.10696777 0 0 Z " fill="#000000" transform="translate(912.3125,5.46875)"/>
<path d="M0 0 C0.97003967 -0.0065712 1.94007935 -0.0131424 2.93951416 -0.01991272 C6.14148041 -0.03957705 9.34339978 -0.05129657 12.54541016 -0.0612793 C13.64525867 -0.06535482 14.74510719 -0.06943035 15.87828445 -0.07362938 C21.70628926 -0.09446659 27.53427073 -0.10877528 33.36230469 -0.11816406 C39.34463846 -0.12918926 45.32659627 -0.1635512 51.30879784 -0.20333576 C55.94003936 -0.22964763 60.57119353 -0.23786904 65.2025032 -0.24144554 C67.40542752 -0.24627837 69.60834883 -0.25779638 71.81119919 -0.27648354 C87.58916336 -0.40195121 102.46609398 0.29265324 116.64697266 8.05200195 C117.30818115 8.39932373 117.96938965 8.74664551 118.65063477 9.10449219 C133.97644469 17.2801391 144.16276968 26.98062148 149.58447266 43.98950195 C151.79855147 51.58475494 152.37378268 58.94187659 152.41259766 66.80200195 C152.41829773 67.70772949 152.4239978 68.61345703 152.42987061 69.54663086 C152.43927288 71.45270638 152.44583548 73.3587978 152.44970703 75.26489258 C152.45944306 78.16817551 152.49052385 81.0707588 152.52197266 83.97387695 C152.52850112 85.83324779 152.53375221 87.69262364 152.53759766 89.55200195 C152.54994446 90.4126123 152.56229126 91.27322266 152.57501221 92.15991211 C152.55032492 98.88678349 151.27916985 103.49857029 147.08447266 108.92700195 C138.92304138 115.31420904 129.11074539 114.90593001 119.20947266 114.17700195 C113.47317067 113.22359996 109.51821888 111.14977599 105.40087891 107.06762695 C102.16462552 101.93206421 101.92760701 96.08991107 101.93603516 90.1887207 C101.91574163 88.66202072 101.89489076 87.13532807 101.87353516 85.60864258 C101.85102258 83.23919438 101.83448638 80.87003828 101.82861328 78.50048828 C101.78423 67.84295362 101.03299885 59.69115768 95.52197266 50.30200195 C88.4019178 43.75924884 79.27481066 43.06053498 69.97998047 43.03173828 C68.9515654 43.02670036 68.9515654 43.02670036 67.90237427 43.02156067 C65.65576317 43.01213156 63.40922726 43.0101115 61.16259766 43.0090332 C59.58469615 43.00581455 58.00679494 43.00245003 56.42889404 42.99894714 C53.12723093 42.9929756 49.82559391 42.99110516 46.52392578 42.99169922 C42.32025907 42.99180061 38.11676212 42.97816286 33.91313553 42.96092701 C30.65463513 42.94973569 27.39617481 42.9477822 24.13765717 42.94830894 C22.58931647 42.94713899 21.0409744 42.94277344 19.49265289 42.93497658 C2.77100571 42.34572756 2.77100571 42.34572756 -11.79052734 49.17700195 C-18.9123767 57.35320331 -19.94736111 66.5533922 -19.92424011 77.12666321 C-19.92763845 78.28273828 -19.92763845 78.28273828 -19.93110543 79.4621684 C-19.93740468 82.02899365 -19.9366187 84.59576555 -19.93579102 87.16259766 C-19.93878505 89.00945097 -19.94218814 90.85630365 -19.94596863 92.70315552 C-19.95478791 97.70945448 -19.95714587 102.71573634 -19.95778441 107.72204232 C-19.95849609 110.85274892 -19.96063263 113.9834512 -19.96328163 117.11415672 C-19.97252816 128.04453176 -19.97661738 138.97489462 -19.97583008 149.90527344 C-19.97522945 160.08049361 -19.98578011 170.25566074 -20.00157374 180.43086749 C-20.01466573 189.17844113 -20.02001328 197.92599747 -20.01937467 206.67358083 C-20.01912017 211.89294913 -20.02194469 217.11227028 -20.03255272 222.3316288 C-20.04226162 227.24248408 -20.04229376 232.15324739 -20.03503609 237.06410599 C-20.03399372 238.8611394 -20.03633237 240.65817862 -20.04239655 242.4552021 C-20.51781952 261.29801047 -20.51781952 261.29801047 -12.40771484 277.7121582 C-6.71510204 282.82358802 -0.73975 283.47701398 6.62646484 283.48339844 C7.45008514 283.49172195 8.27370544 283.50004547 9.12228394 283.50862122 C11.83368723 283.53263213 14.54484945 283.54148299 17.25634766 283.5480957 C19.15195789 283.55706977 21.04756743 283.56619175 22.94317627 283.57545471 C26.91412065 283.59192375 30.88498095 283.59964086 34.85595703 283.60253906 C39.92431593 283.60791647 44.99187545 283.64557905 50.060009 283.69128323 C53.97559436 283.72114591 57.89098948 283.72826464 61.80667877 283.72926521 C63.67406113 283.73345029 65.54144496 283.74581519 67.40871429 283.76678276 C81.65276859 284.19754027 81.65276859 284.19754027 94.20947266 278.17700195 C99.84333391 271.50884133 101.49103495 263.9577747 101.51806641 255.3371582 C101.54322129 253.84691983 101.56861939 252.35668555 101.59423828 250.86645508 C101.62292971 248.55176822 101.64699172 246.23715201 101.66577148 243.92236328 C101.85052209 224.81184168 101.85052209 224.81184168 107.11181641 219.1184082 C107.78341797 218.66336914 108.45501953 218.20833008 109.14697266 217.73950195 C109.81599609 217.26641602 110.48501953 216.79333008 111.17431641 216.3059082 C116.09021714 213.5790458 121.42139354 213.92467315 126.89697266 213.86450195 C127.75742188 213.83549805 128.61787109 213.80649414 129.50439453 213.77661133 C135.81418816 213.71479722 140.7619982 214.92178621 146.20947266 218.17700195 C151.10696625 223.07449554 152.42991929 227.87932682 152.51301575 234.60983276 C152.51164864 235.84577682 152.51164864 235.84577682 152.51025391 237.10668945 C152.51453903 237.97407745 152.51882416 238.84146545 152.52323914 239.73513794 C152.52897382 241.57252127 152.52948905 243.4099273 152.52514648 245.24731445 C152.52202228 248.00814643 152.54533036 250.76786765 152.57080078 253.52856445 C152.63626829 271.85265089 150.74831644 288.92831584 138.20947266 303.17700195 C137.64744141 303.84473633 137.08541016 304.5124707 136.50634766 305.20043945 C124.68444683 318.20453037 105.94716683 326.08709919 88.65044212 327.36625099 C86.09949591 327.44016106 83.55516721 327.45889785 81.00317383 327.45166016 C79.57146095 327.45932655 79.57146095 327.45932655 78.11082458 327.46714783 C74.99129768 327.48091773 71.87199488 327.48009648 68.75244141 327.4777832 C66.55967631 327.48167729 64.36691196 327.48601342 62.17414856 327.49076843 C57.59076486 327.49820379 53.00745823 327.49795908 48.42407227 327.49267578 C42.58409841 327.4868875 36.74444237 327.50381006 30.90452099 327.52702045 C26.37887259 327.54183554 21.85329935 327.54261891 17.327631 327.53951073 C15.17610355 327.54002012 13.02457148 327.54518521 10.87306786 327.55532265 C-13.00027124 327.65401264 -34.38600955 323.41245808 -52.79052734 307.17700195 C-66.6583804 293.28905056 -70.16265894 276.88559753 -70.19711304 257.93034363 C-70.19128179 255.926055 -70.18513739 253.92176727 -70.17871094 251.91748047 C-70.18278182 249.77919243 -70.18812659 247.6409065 -70.19464111 245.50262451 C-70.20825977 239.72366797 -70.20303837 233.94487301 -70.19350386 228.16591382 C-70.18587798 222.10083426 -70.19296107 216.035768 -70.19766235 209.97068787 C-70.2031118 199.78674857 -70.19594999 189.60287467 -70.18164062 179.41894531 C-70.16532012 167.66848207 -70.17060162 155.91817506 -70.18711984 144.16771561 C-70.20076304 134.05523872 -70.20264039 123.94280867 -70.19480383 113.83032554 C-70.19014233 107.80106323 -70.18946035 101.77187418 -70.1994133 95.74261665 C-70.20812182 90.07160304 -70.20199033 84.40078951 -70.18473053 78.72979736 C-70.18078619 76.65666472 -70.18186424 74.58351504 -70.18851852 72.51038933 C-70.24581288 52.83654223 -68.16665126 36.45469984 -54.13427734 21.4309082 C-49.38339002 16.86213822 -44.68853397 13.2540746 -38.85302734 10.17700195 C-38.20986572 9.83596436 -37.5667041 9.49492676 -36.90405273 9.14355469 C-25.10781131 3.08726328 -13.25124309 0.03928191 0 0 Z " fill="#000000" transform="translate(1532.79052734375,5.822998046875)"/>
<path d="M0 0 C4.25732098 3.35747814 6.07235373 7.76848956 7 13 C7.30312616 17.33424842 7.31114706 21.66004299 7.31884766 26.00366211 C7.32889328 27.30190918 7.3389389 28.60015625 7.34928894 29.93774414 C7.37648345 33.48059267 7.39170685 37.02340166 7.40471697 40.56632686 C7.42039392 44.27526658 7.44716949 47.98412614 7.4727478 51.69300842 C7.51945503 58.70864816 7.556238 65.72430311 7.58942068 72.74001843 C7.62769914 80.73040486 7.67709423 88.72071061 7.72740483 96.71102893 C7.8306048 113.14062793 7.91990383 129.57027178 8 146 C9.74391097 144.11224378 11.48578077 142.22266965 13.2265625 140.33203125 C13.95854858 139.54028503 13.95854858 139.54028503 14.70532227 138.73254395 C18.49583789 134.6111103 22.04912568 130.33300474 25.5625 125.97265625 C28.43719747 122.46681527 31.39722667 119.04329802 34.375 115.625 C38.47020693 110.92272211 42.54318503 106.20486632 46.5625 101.4375 C50.35414489 96.94017638 54.16728302 92.46238201 58 88 C61.85138938 83.5150648 65.686331 79.01705464 69.5 74.5 C73.815252 69.38885138 78.16166658 64.30530858 82.51953125 59.23046875 C85.86292298 55.33416469 89.18792482 51.42294783 92.5 47.5 C96.815252 42.38885138 101.16166658 37.30530858 105.51953125 32.23046875 C108.40729939 28.86513689 111.28436709 25.49127581 114.14550781 22.10327148 C115.04453024 21.0391258 115.94491023 19.97612546 116.84667969 18.91430664 C119.29194819 16.03376626 121.71292333 13.13616882 124.109375 10.21484375 C125.15613899 8.95563688 126.20301146 7.69652018 127.25 6.4375 C127.72115234 5.85355469 128.19230469 5.26960937 128.67773438 4.66796875 C132.57770669 0.01193486 136.61678491 -3.30019089 142.73828125 -4.56640625 C151.6389063 -4.55289999 158.31545806 -1.80566476 164.8125 4.3125 C169.55140153 9.43230615 173.6192241 15.11608587 174.3125 22.1875 C173.63194716 30.49024468 168.95374199 35.45568258 163.421875 41.3671875 C161.0192834 43.97903707 158.78481755 46.6714239 156.5625 49.4375 C152.70291397 54.20996203 148.62800009 58.73109109 144.47265625 63.24609375 C141.25290481 66.83207284 138.24094824 70.56701492 135.21484375 74.31640625 C133.04367173 76.94708557 130.79758643 79.47942424 128.5 82 C125.47717579 85.31989486 122.57487839 88.69764112 119.75 92.1875 C116.14529915 96.63852192 112.44629733 100.99198605 108.6875 105.3125 C108.13642578 105.94599365 107.58535156 106.5794873 107.01757812 107.23217773 C105.89837515 108.51831655 104.77907163 109.80436788 103.65966797 111.09033203 C97.5392154 118.13272391 91.43969663 125.19002801 85.5625 132.4375 C80.40813208 138.78276881 75.02637235 144.92509448 69.65966797 151.09033203 C63.5392154 158.13272391 57.43969663 165.19002801 51.5625 172.4375 C46.40813208 178.78276881 41.02637235 184.92509448 35.65966797 191.09033203 C28.66962495 199.13330298 21.74730042 207.22298214 15.03515625 215.5 C13 218 13 218 10.41104126 220.62919617 C7.39656679 224.26923716 7.30867344 227.85224831 7.38818359 232.43286133 C7.38251877 233.25808792 7.37685394 234.08331451 7.37101746 234.93354797 C7.35755989 237.65017716 7.37843365 240.36546111 7.3984375 243.08203125 C7.39293374 244.98004567 7.3848059 246.87805412 7.37417603 248.77604675 C7.35130564 253.76874358 7.3555014 258.7610024 7.36798096 263.75372314 C7.38629183 271.73328299 7.37619949 279.71258438 7.34212112 287.69208336 C7.33604805 290.46898069 7.34924045 293.24531772 7.36410522 296.02217102 C7.36115467 297.74110047 7.35749848 299.46002891 7.35302734 301.17895508 C7.36231766 301.94133484 7.37160797 302.7037146 7.38117981 303.48919678 C7.33103552 310.35449653 6.08284741 316.66314681 1.4375 321.875 C-6.62072482 327.59693359 -16.88023743 328.05913823 -26.36328125 326.6484375 C-33.69583134 325.01898192 -37.6235317 321.83529106 -42 316 C-42.99658846 313.01023461 -43.12811836 311.04306413 -43.13422108 307.92113972 C-43.13867892 306.8646313 -43.14313676 305.80812289 -43.14772969 304.71959907 C-43.14754533 303.55483722 -43.14736097 302.39007537 -43.14717102 301.1900177 C-43.15084771 299.95578259 -43.1545244 298.72154747 -43.1583125 297.4499113 C-43.1674424 294.017444 -43.1720497 290.58502452 -43.17470181 287.15254962 C-43.17860411 283.45302072 -43.1881825 279.75350566 -43.19691467 276.0539856 C-43.21668132 267.1163027 -43.2267456 258.17861867 -43.23564246 249.24091938 C-43.24002508 245.03252163 -43.24539196 240.82412514 -43.25063133 236.61572838 C-43.2676439 222.62689506 -43.28213819 208.63806254 -43.28938007 194.64922047 C-43.29128998 191.01866975 -43.29321031 187.38811905 -43.29516602 183.75756836 C-43.29589163 182.40402643 -43.29589163 182.40402643 -43.2966319 181.02314021 C-43.30493265 166.4046467 -43.33027019 151.786235 -43.36274669 137.16777722 C-43.39581405 122.16107728 -43.41382855 107.15441893 -43.41702431 92.14768237 C-43.41918973 83.72123974 -43.42794287 75.29491642 -43.45348549 66.86850929 C-43.47518809 59.69230803 -43.48324511 52.51625505 -43.47351871 45.34002469 C-43.46897267 41.67924012 -43.47087748 38.01876152 -43.49028015 34.35801888 C-43.51114613 30.38685234 -43.50093067 26.41610768 -43.48774719 22.44490051 C-43.49871644 21.29129227 -43.50968568 20.13768403 -43.52098733 18.94911796 C-43.46659943 12.1700532 -42.65919933 7.75972003 -39 2 C-28.77204959 -6.8332299 -11.40592434 -6.30841364 0 0 Z " fill="#000000" transform="translate(1786,8)"/>
<path d="M0 0 C1.5091146 -0.00379104 3.01822571 -0.00929751 4.52732849 -0.01637268 C8.59321649 -0.03023641 12.65867706 -0.01922482 16.72454095 -0.00266147 C20.99248541 0.01126799 25.26040705 0.0047205 29.52836609 0.00120544 C36.68760001 -0.00148901 43.84666553 0.01191784 51.00585938 0.03515625 C59.27497157 0.06181208 67.54380327 0.06349413 75.81294376 0.05176789 C83.78624824 0.04098254 91.75945158 0.04717982 99.73274803 0.06132317 C103.11898384 0.0670713 106.50514535 0.06700967 109.89138222 0.06225777 C113.876535 0.05747874 117.86138112 0.0676277 121.8464756 0.08921242 C123.30654364 0.094766 124.76664123 0.09525871 126.22671127 0.09025955 C128.22307247 0.08428219 130.21946341 0.09867899 132.21577454 0.11402893 C133.33160573 0.11645883 134.44743692 0.11888872 135.59708118 0.12139225 C140.3224782 0.6987639 143.60937298 2.40136517 146.9597168 5.75170898 C151.72852959 13.24555767 151.32362577 21.93531763 150.7097168 30.50170898 C149.67009098 35.13828838 147.40860503 38.49636229 143.7097168 41.50170898 C140.69778369 42.50568669 138.71237211 42.62509471 135.56550598 42.6219635 C134.50341069 42.623341 133.4413154 42.62471849 132.34703541 42.62613773 C131.17741607 42.62253963 130.00779673 42.61894152 128.80273438 42.61523438 C127.55343738 42.61535491 126.30414038 42.61547544 125.01698589 42.61559963 C121.63584972 42.61497589 118.25477474 42.61002719 114.8736496 42.6029892 C111.70161536 42.59729675 108.52958268 42.59702621 105.35754395 42.59631348 C96.07909688 42.59106492 86.80065639 42.57710379 77.5222168 42.56420898 C56.7940918 42.54358398 36.0659668 42.52295898 14.7097168 42.50170898 C14.7097168 122.36170898 14.7097168 202.22170898 14.7097168 284.50170898 C56.84853632 284.42255206 56.84853632 284.42255206 98.98730469 284.3215332 C107.14416504 284.3125 107.14416504 284.3125 110.96482849 284.31082153 C113.62876352 284.30775376 116.29250787 284.30147726 118.95640564 284.29055786 C122.99538707 284.27422235 127.03422781 284.27389722 131.07324219 284.2746582 C132.25657418 284.26746199 133.43990618 284.26026577 134.65909672 284.25285149 C148.39249425 284.28747411 148.39249425 284.28747411 153.5222168 289.18920898 C158.63369857 296.92945281 158.35258405 305.53123824 157.7097168 314.50170898 C156.67262307 319.1269956 154.43407079 322.54413376 150.7097168 325.50170898 C146.74563711 327.44578026 143.52486855 327.75281187 139.13275146 327.75567627 C138.48554461 327.75879625 137.83833775 327.76191623 137.17151856 327.76513076 C135.01065506 327.77308485 132.8500744 327.76679725 130.68920898 327.76049805 C129.13658992 327.76320917 127.58397215 327.76677079 126.03135681 327.77111816 C121.81834094 327.78023304 117.60542308 327.77670082 113.39240551 327.77035999 C108.97768581 327.76529174 104.56297443 327.76999408 100.14825439 327.77313232 C92.73041277 327.77677108 85.31261097 327.77197683 77.89477539 327.76245117 C69.33279237 327.75158284 60.77090473 327.75508076 52.20892406 327.76610398 C44.84907492 327.7751986 37.48925439 327.77645103 30.12940145 327.77122664 C25.73778933 327.76811682 21.34622193 327.76767005 16.95461273 327.77429962 C12.82104629 327.78010353 8.68760189 327.77602075 4.55404854 327.76451111 C3.04202285 327.76188006 1.52998679 327.76260285 0.01796532 327.76703644 C-21.15814821 327.82337409 -21.15814821 327.82337409 -28.2902832 321.50170898 C-32.25089268 315.67349503 -34.41005595 310.57039226 -34.42450428 303.50562 C-34.42896212 302.49302138 -34.43341997 301.48042276 -34.4380129 300.43713933 C-34.43782854 299.32655477 -34.43764417 298.21597021 -34.43745422 297.07173157 C-34.44113091 295.89043378 -34.4448076 294.70913598 -34.4485957 293.49204129 C-34.45771425 290.21199152 -34.46233041 286.93197116 -34.46498501 283.6519109 C-34.46889185 280.11461749 -34.47846988 276.57733851 -34.48719788 273.04005432 C-34.50695088 264.4972999 -34.51702672 255.95454431 -34.52592567 247.41177276 C-34.53031021 243.38780263 -34.53567656 239.36383382 -34.54091454 235.33986473 C-34.55792515 221.9617722 -34.5724193 208.58368049 -34.57966328 195.2055788 C-34.58157313 191.73470878 -34.58349347 188.26383875 -34.58544922 184.79296875 C-34.58593296 183.93031327 -34.5864167 183.06765778 -34.5869151 182.17886122 C-34.59521536 168.20452442 -34.62055294 154.23027322 -34.6530299 140.25597379 C-34.68610834 125.9057745 -34.70411272 111.55561871 -34.70730752 97.2053811 C-34.70947182 89.14947874 -34.71820878 81.09370125 -34.74376869 73.03783607 C-34.76548638 66.17715886 -34.77352087 59.31663683 -34.76380191 52.45592914 C-34.75926034 48.95702962 -34.76113462 45.45845024 -34.78056335 41.95959473 C-34.79823108 38.16166109 -34.79119995 34.36453858 -34.7780304 30.56660461 C-34.78899964 29.46717366 -34.79996889 28.36774271 -34.81127053 27.23499566 C-34.7434826 19.13259393 -32.60767859 13.67302068 -28.7277832 6.68920898 C-20.81607631 -0.4110408 -10.02494217 -0.07241883 0 0 Z " fill="#000000" transform="translate(628.290283203125,5.498291015625)"/>
<path d="M0 0 C4.10540888 3.20524751 5.63860904 5.54398395 6.96875 10.67578125 C7.25425283 14.34652116 7.22993454 18.00528153 7.20925903 21.68551636 C7.21096788 22.7972856 7.21267673 23.90905483 7.21443737 25.05451405 C7.21773245 28.78103711 7.20672805 32.50738024 7.19580078 36.23388672 C7.19523667 38.90469264 7.19546515 41.57548754 7.19668579 44.24629211 C7.19773367 49.99696593 7.19146723 55.7475943 7.18021011 61.49825668 C7.1639449 69.81270664 7.15874606 78.12713465 7.15623413 86.44159879 C7.15185863 99.93178143 7.13855346 113.42193987 7.11962891 126.91210938 C7.10126636 140.01529825 7.08711168 153.11848054 7.07861328 166.22167969 C7.07782511 167.43352888 7.07782511 167.43352888 7.07702102 168.66985987 C7.07441091 172.72291933 7.0718835 176.77597884 7.06939721 180.82903838 C7.04866923 214.44463689 7.01344764 248.0602061 6.96875 281.67578125 C7.67351251 281.67393766 8.37827501 281.67209408 9.10439396 281.67019463 C26.2645733 281.62599738 43.42473816 281.59291581 60.58496189 281.57215691 C68.88356637 281.56185085 77.18213282 281.54780333 85.48071289 281.52490234 C92.7150031 281.50494794 99.94926576 281.49205994 107.18358272 281.48760426 C111.01295726 281.48500036 114.842253 281.47889401 118.67160225 281.46432114 C122.27896308 281.45070481 125.88621295 281.44656677 129.49359703 281.44956589 C131.44246209 281.44875689 133.39131517 281.43801648 135.34014893 281.42694092 C149.75375709 281.46078834 149.75375709 281.46078834 154.28125 285.98828125 C158.00143975 291.91302789 158.30621029 296.75918623 158.28125 303.61328125 C158.29736328 304.49435547 158.31347656 305.37542969 158.33007812 306.28320312 C158.3339898 311.50528948 157.89957558 315.17112331 154.96875 319.67578125 C150.14565348 324.13714553 146.74123306 324.80066527 140.2906189 324.80949402 C139.60836892 324.81175958 138.92611894 324.81402513 138.22319472 324.81635934 C135.93181974 324.82270091 133.64050389 324.82186986 131.34912109 324.82104492 C129.7081291 324.82403643 128.06713782 324.82743894 126.42614746 324.83122253 C121.96304948 324.84007047 117.49997066 324.84240106 113.03686476 324.84303832 C110.24723708 324.84374871 107.45761429 324.84588289 104.66798782 324.84853554 C94.93181295 324.85779363 85.19565178 324.8618701 75.45947266 324.86108398 C66.3919859 324.860484 57.32455879 324.87101903 48.25708711 324.88682765 C40.46841254 324.89992151 32.67975741 324.90526706 24.89107192 324.90462857 C20.24120656 324.904374 15.59139413 324.90720223 10.94153976 324.91780663 C6.56342053 324.92751792 2.18540445 324.92754605 -2.19271851 324.92028999 C-3.7950493 324.91924771 -5.39738661 324.92158579 -6.99970627 324.92765045 C-28.47299248 325.00362475 -28.47299248 325.00362475 -36.03125 318.67578125 C-42.03237463 311.00767756 -42.32309408 304.05978094 -42.29194641 294.68139648 C-42.29768473 292.85470885 -42.29768473 292.85470885 -42.30353898 290.99111843 C-42.31206533 287.61851438 -42.311638 284.24612862 -42.30735838 280.87353086 C-42.30489066 277.2333941 -42.31390583 273.59328291 -42.32139587 269.95315552 C-42.33414297 262.82515802 -42.3359366 255.69719819 -42.33359561 248.56919122 C-42.33181253 242.77609351 -42.33356187 236.98300723 -42.33782005 231.18991089 C-42.33841524 230.36539852 -42.33901043 229.54088614 -42.33962366 228.69138855 C-42.3408354 227.01640614 -42.34204954 225.34142373 -42.34326603 223.66644132 C-42.35414132 207.96023206 -42.35197895 192.25404427 -42.34588119 176.5478338 C-42.34071036 162.17715328 -42.35197186 147.80654051 -42.37097941 133.43587339 C-42.39034695 118.67994612 -42.39861582 103.92405092 -42.39485615 89.16811085 C-42.39294268 80.88376956 -42.39544605 72.59948596 -42.40957069 64.31515503 C-42.42147156 57.26377688 -42.42290386 50.21249195 -42.41078053 43.16111255 C-42.40488309 39.56339353 -42.40381617 35.96584512 -42.41578293 32.36813736 C-42.42860258 28.46872859 -42.418198 24.56957964 -42.4054718 20.67016602 C-42.41653323 18.96326678 -42.41653323 18.96326678 -42.42781812 17.22188473 C-42.38073581 10.38613446 -41.86754935 5.59550117 -36.90625 0.48828125 C-26.12563295 -6.30819472 -10.86557086 -7.08351639 0 0 Z " fill="#000000" transform="translate(1152.03125,8.32421875)"/>
<path d="M0 0 C6.25276701 6.65265327 5.57059809 16.30181919 5.54194641 24.78050232 C5.54768473 26.5882022 5.54768473 26.5882022 5.55353898 28.43242127 C5.5620463 31.76051137 5.56164528 35.0883795 5.55735838 38.41646302 C5.55488545 42.01231355 5.56391231 45.60813843 5.57139587 49.20397949 C5.58412878 56.24180326 5.58593836 63.27958885 5.58359561 70.3174222 C5.58181085 76.03893604 5.58356547 81.76043831 5.58782005 87.48195076 C5.58871284 88.70452447 5.58871284 88.70452447 5.58962366 89.95179664 C5.59083544 91.60768779 5.59204957 93.26357893 5.59326603 94.91947008 C5.60413597 110.439314 5.60198156 125.95913618 5.59588119 141.47898132 C5.59071152 155.66967887 5.60196976 169.86030779 5.62097941 184.05099177 C5.64036159 198.631845 5.6486132 213.21266576 5.64485615 227.79353195 C5.64294482 235.97565823 5.64542519 244.15772609 5.65957069 252.33984184 C5.67149025 259.30471529 5.67288289 266.26949433 5.66078053 273.23436909 C5.65489609 276.78589335 5.65378025 280.33724499 5.66578293 283.88875771 C5.67865782 287.74322011 5.66816701 291.59742163 5.6554718 295.45188904 C5.66284609 296.56804625 5.67022037 297.68420347 5.67781812 298.83418363 C5.62434998 306.55470673 4.92588008 313.39176902 -0.03125 319.5546875 C-7.90898568 325.78359478 -16.02173458 326.2049425 -25.71875 325.6796875 C-31.53682813 324.96151848 -36.23469801 323.6423381 -40.71875 319.6796875 C-45.03881924 312.85902983 -45.28838482 307.22185448 -45.22668457 299.26843262 C-45.23292453 298.02992538 -45.2391645 296.79141814 -45.24559355 295.51538038 C-45.25875113 292.09391073 -45.25406639 288.67332428 -45.24164867 285.25190902 C-45.23257777 281.55585358 -45.24657799 277.85987388 -45.25756836 274.16383362 C-45.27533648 266.92978339 -45.27152125 259.69589935 -45.2599178 252.46184266 C-45.25087701 246.58155781 -45.24966226 240.70131947 -45.25401306 234.82102966 C-45.25462599 233.98348891 -45.25523893 233.14594816 -45.25587043 232.28302738 C-45.25714936 230.58147449 -45.25844621 228.87992161 -45.2597608 227.17836875 C-45.27116159 211.23027634 -45.25806076 195.28227597 -45.23655933 179.33419865 C-45.21868879 165.65585849 -45.22179304 151.97765412 -45.24023438 138.29931641 C-45.26164994 122.4075276 -45.270063 106.51581941 -45.25778532 90.62401819 C-45.25651115 88.92879392 -45.25525367 87.23356963 -45.25401306 85.53834534 C-45.25308741 84.28728562 -45.25308741 84.28728562 -45.25214306 83.01095197 C-45.24869221 77.13907175 -45.25451277 71.26724276 -45.26393127 65.39537048 C-45.27516027 58.2375639 -45.27209236 51.07993274 -45.2508083 43.9221462 C-45.24030989 40.27147099 -45.23615512 36.62108804 -45.24940491 32.97041512 C-45.26355975 29.0104263 -45.24663607 25.05091402 -45.22668457 21.09094238 C-45.23560746 19.94074474 -45.24453034 18.79054709 -45.25372362 17.60549498 C-45.18754097 10.83898542 -44.36778516 6.43038042 -40.71875 0.6796875 C-30.38328529 -8.24639566 -10.79838224 -8.2951209 0 0 Z " fill="#000000" transform="translate(1393.71875,9.3203125)"/>
<path d="M0 0 C4.69877338 4.13823353 7.8813818 9.60408571 11.30078125 14.7890625 C12.05469541 15.9174772 12.80959064 17.04523701 13.56542969 18.17236328 C15.08330387 20.4373266 16.59716531 22.70488517 18.10791016 24.97460938 C21.03291527 29.3537369 24.00626553 33.69864982 26.98828125 38.0390625 C28.03534561 39.56757863 29.08222204 41.09622353 30.12890625 42.625 C30.64001953 43.37104492 31.15113281 44.11708984 31.67773438 44.88574219 C34.36618849 48.81075061 37.05206188 52.73752449 39.73828125 56.6640625 C40.81900457 58.24349358 41.89973373 59.82292067 42.98046875 61.40234375 C45.17366769 64.60773763 47.36631843 67.8135056 49.55859375 71.01953125 C50.66015115 72.63021182 51.76171363 74.24088892 52.86328125 75.8515625 C53.4054126 76.64449707 53.94754395 77.43743164 54.50610352 78.25439453 C56.99964281 81.89975269 59.49675029 85.54246669 62.0078125 89.17578125 C64.76361176 93.16351407 67.50649453 97.15984059 70.23828125 101.1640625 C70.82883301 102.02950684 71.41938477 102.89495117 72.02783203 103.78662109 C73.93857457 106.59509375 75.8395718 109.40994363 77.73828125 112.2265625 C78.33825928 113.10747559 78.9382373 113.98838867 79.55639648 114.89599609 C84.8109055 122.72721389 88.75851166 129.44906629 87.23828125 139.1640625 C84.35288463 147.8715483 79.22872387 153.08254783 71.36328125 157.4765625 C67.08680018 159.43696098 62.96128392 160.48919674 58.23828125 160.1640625 C45.95789143 155.42426292 38.94020036 141.13419591 31.95263672 130.71337891 C29.19804333 126.61718635 26.40466557 122.54773015 23.61328125 118.4765625 C22.52727968 116.88936675 21.44134135 115.30212773 20.35546875 113.71484375 C17.04465052 108.87901171 13.72409484 104.04991326 10.40185547 99.22192383 C6.83862541 94.04191193 3.28709686 88.85395794 -0.26171875 83.6640625 C-4.29666487 77.76359187 -8.33633176 71.86644563 -12.38671875 65.9765625 C-12.82838379 65.33396484 -13.27004883 64.69136719 -13.72509766 64.02929688 C-16.0501751 60.64767564 -18.37982257 57.26929483 -20.71484375 53.89453125 C-21.20388184 53.18643311 -21.69291992 52.47833496 -22.19677734 51.7487793 C-23.12011521 50.41199021 -24.04479999 49.07612987 -24.97119141 47.74145508 C-31.83758509 37.79211074 -36.87818112 30.36370742 -35.35546875 17.8359375 C-33.66040775 10.20816299 -28.15091396 4.39746282 -21.76171875 0.1640625 C-14.59583294 -3.19928068 -6.83620839 -4.54457984 0 0 Z " fill="#000000" transform="translate(1889.76171875,168.8359375)"/>
<path d="M0 0 C7.61308558 5.26502794 12.81317774 11.68914594 16.3125 20.1875 C18.30065467 31.21272137 17.2943686 40.78956148 11.52734375 50.47265625 C6.19495182 58.02372662 -1.12983944 62.5618091 -10 65 C-20.38873991 66.0027291 -29.77317461 65.3101307 -38.5 59.26953125 C-45.6102965 53.41055337 -50.32641181 46.12866286 -52 37 C-52.98044089 25.65705306 -51.08135337 15.74314021 -43.75390625 6.78125 C-31.77862338 -5.38072993 -15.14879947 -6.92463505 0 0 Z " fill="#000000" transform="translate(731,132)"/>
</svg>
