<?xml version="1.0" encoding="UTF-8"?>
<svg version="1.1" xmlns="http://www.w3.org/2000/svg" width="2000" height="2000">
<path d="M0 0 C660 0 1320 0 2000 0 C2000 660 2000 1320 2000 2000 C1340 2000 680 2000 0 2000 C0 1340 0 680 0 0 Z " fill="#011444" transform="translate(0,0)"/>
<path d="M0 0 C291.06 0 582.12 0 882 0 C882 291.06 882 582.12 882 882 C590.94 882 299.88 882 0 882 C0 997.5 0 1113 0 1232 C-115.5 1232 -231 1232 -350 1232 C-350 1116.5 -350 1001 -350 882 C-428.54 882 -507.08 882 -588 882 C-588 687.96 -588 493.92 -588 294 C-393.96 294 -199.92 294 0 294 C0 196.98 0 99.96 0 0 Z " fill="#EE466E" transform="translate(853,384)"/>
<path d="M0 0 C194.04 0 388.08 0 588 0 C588 309.54 588 619.08 588 938 C472.5 938 357 938 238 938 C238 822.5 238 707 238 588 C159.46 588 80.92 588 0 588 C0 393.96 0 199.92 0 0 Z " fill="#26547C" transform="translate(265,678)"/>
<path d="M0 0 C115.5 0 231 0 350 0 C350 115.5 350 231 350 350 C234.5 350 119 350 0 350 C0 234.5 0 119 0 0 Z " fill="#FEFBF8" transform="translate(503,1266)"/>
</svg>
