<?xml version="1.0" encoding="UTF-8"?>
<svg version="1.1" xmlns="http://www.w3.org/2000/svg" width="2000" height="1022">
<path d="M0 0 C215.49 0 430.98 0 653 0 C653 215.49 653 430.98 653 653 C437.84 653 222.68 653 1 653 C1 738.14 1 823.28 1 911 C-84.47 911 -169.94 911 -258 911 C-258 825.86 -258 740.72 -258 653 C-316.08 653 -374.16 653 -434 653 C-434 509.12 -434 365.24 -434 217 C-290.78 217 -147.56 217 0 217 C0 145.39 0 73.78 0 0 Z " fill="#EE476F" transform="translate(453,10)"/>
<path d="M0 0 C143.55 0 287.1 0 435 0 C435 143.55 435 287.1 435 435 C395.895 435.165 356.79 435.33 316.5 435.5 C298.62102539 435.57831055 298.62102539 435.57831055 280.38085938 435.65820312 C186.9179748 436.03480445 93.46635333 436 0 436 C0 292.12 0 148.24 0 0 Z " fill="#25547B" transform="translate(19,227)"/>
<path d="M0 0 C85.47 0 170.94 0 259 0 C259 85.47 259 170.94 259 259 C173.53 259 88.06 259 0 259 C0 173.53 0 88.06 0 0 Z " fill="#FFFBF8" transform="translate(195,662)"/>
<path d="M0 0 C24 0 24 0 29.5625 4.609375 C31.40625 7.58984375 31.40625 7.58984375 33 10.75 C33.5878125 11.74644531 34.175625 12.74289062 34.78125 13.76953125 C35.97258163 15.79427251 37.1315924 17.83836735 38.25805664 19.89990234 C41.19979935 25.13525608 44.61370271 30.04523543 48 35 C48.65500488 35.96744141 49.31000977 36.93488281 49.98486328 37.93164062 C52.0058078 40.91614528 54.03332094 43.89608883 56.0625 46.875 C56.79710449 47.95434814 57.53170898 49.03369629 58.28857422 50.14575195 C64.90557983 59.86728594 71.5303649 69.58352271 78.15722656 79.29833984 C81.27216287 83.86509728 84.38602178 88.43258924 87.5 93 C88.74999495 94.83333678 89.99999495 96.66667011 91.25 98.5 C93.75 102.16666667 96.25 105.83333333 98.75 109.5 C99.36963623 110.40878906 99.98927246 111.31757812 100.62768555 112.25390625 C101.86877419 114.07419116 103.10982283 115.89450335 104.35083008 117.71484375 C107.61183445 122.49805048 110.87367829 127.28068198 114.13671875 132.0625 C114.81476563 133.05636719 115.4928125 134.05023437 116.19140625 135.07421875 C117.48672176 136.97283189 118.78228023 138.8712793 120.078125 140.76953125 C120.66464844 141.62933594 121.25117187 142.48914063 121.85546875 143.375 C122.36746826 144.12523437 122.87946777 144.87546875 123.40698242 145.6484375 C125.28610268 148.42233579 127.14149732 151.21224599 129 154 C129.33 103.18 129.66 52.36 130 0 C137.26 0 144.52 0 152 0 C152 64.02 152 128.04 152 194 C128 194 128 194 122.9453125 190.15234375 C121.42211914 187.65283203 121.42211914 187.65283203 120.125 184.9375 C119.59060303 184.02081543 119.05620605 183.10413086 118.50561523 182.15966797 C117.43441005 180.31821755 116.39632599 178.45703395 115.39501953 176.57666016 C113.50853381 173.09224114 111.31449543 169.87916337 109.0625 166.625 C108.26321024 165.42217406 107.46641327 164.21768861 106.671875 163.01171875 C101.5158266 155.24002521 96.21731443 147.56307105 90.95556641 139.86279297 C87.80051078 135.24404362 84.65044701 130.62189352 81.5 126 C80.25002527 124.16664944 79.00002524 122.33331613 77.75 120.5 C70.25 109.5 62.75 98.5 55.25 87.5 C54.6305249 86.59145264 54.0110498 85.68290527 53.37280273 84.74682617 C52.13006628 82.92411363 50.88738993 81.10136011 49.64477539 79.27856445 C46.40914952 74.53238514 43.17230145 69.78704572 39.93359375 65.04296875 C39.26457031 64.06263672 38.59554687 63.08230469 37.90625 62.07226562 C36.63711026 60.21262337 35.36760665 58.35322937 34.09765625 56.49414062 C33.22753906 55.21893555 33.22753906 55.21893555 32.33984375 53.91796875 C31.83831787 53.18344482 31.33679199 52.4489209 30.82006836 51.69213867 C28.19398996 47.80779709 25.60085177 43.90127766 23 40 C22.67 90.82 22.34 141.64 22 194 C14.74 194 7.48 194 0 194 C0 129.98 0 65.96 0 0 Z " fill="#FFFCF8" transform="translate(836,811)"/>
<path d="M0 0 C18.72408436 15.8668665 29.64289487 39.32998589 32.53125 63.4921875 C34.74447404 94.78471635 29.68960064 124.80495213 8.8125 149.46875 C-6.28413715 166.64204975 -26.43443027 176.83172756 -49.1875 179.46875 C-76.546377 180.92170731 -100.29797689 175.01461994 -121.5625 156.93359375 C-142.081177 137.66680031 -152.10512609 110.22622893 -153.1875 82.46875 C-153.47916297 55.21388697 -146.59553244 29.09256412 -128.1875 8.46875 C-127.45015625 7.63730469 -126.7128125 6.80585937 -125.953125 5.94921875 C-93.3989378 -28.67949999 -35.99214882 -29.13225907 0 0 Z M-111.1875 22.46875 C-126.82212709 40.93277789 -130.4238429 65.07572423 -129.1875 88.46875 C-127.1686246 110.25182847 -118.44163389 130.41449913 -101.64697266 144.78710938 C-86.43765044 157.03049512 -69.1761094 159.81694494 -50.1875 158.46875 C-31.99822564 155.98564151 -18.69089352 146.29587618 -6.9375 132.84375 C8.78242238 112.08035252 11.72477208 85.2351018 8.3046875 60.01953125 C7.66436221 56.7332641 6.8554016 53.64812209 5.8125 50.46875 C5.48378906 49.40527344 5.15507813 48.34179688 4.81640625 47.24609375 C-1.15391084 29.91358152 -12.33945312 15.71120936 -28.6484375 7.16015625 C-57.19231177 -6.48167329 -89.60480572 -0.41525378 -111.1875 22.46875 Z " fill="#FFFCF9" transform="translate(767.1875,828.53125)"/>
<path d="M0 0 C7.59 0 15.18 0 23 0 C23.33 29.04 23.66 58.08 24 88 C29.28 83.05 34.56 78.1 40 73 C43.80441427 69.48002791 47.60955321 65.96138906 51.42333984 62.45166016 C54.1181094 59.970536 56.80884393 57.48504209 59.5 55 C62.72527752 52.02204045 65.95105166 49.04463117 69.1796875 46.0703125 C74.99300041 40.71287587 80.78773321 35.33648126 86.5625 29.9375 C90.0853492 26.64436282 93.60900703 23.35248323 97.16015625 20.08984375 C97.65273926 19.63593262 98.14532227 19.18202148 98.65283203 18.71435547 C100.12500323 17.37499706 101.62314303 16.064369 103.12109375 14.75390625 C105.27147307 12.69689482 106.77946697 11.01444732 108.47265625 8.65234375 C112.58045047 3.37405312 115.96657054 0.41492453 122.80175781 -0.52001953 C132.51813362 -1.18119817 142.29715904 -0.6545201 152 0 C146.58976668 6.5548759 146.58976668 6.5548759 143.5 9.125 C139.74408508 12.32606385 136.11425567 15.64139185 132.5 19 C128.44026448 22.76596918 124.3458688 26.4722151 120.15625 30.09375 C117.22759638 32.68284958 114.36601823 35.34194681 111.5 38 C108.03712954 41.21159642 104.57351686 44.4110278 101 47.5 C96.88795707 51.05683038 92.9123038 54.75583684 88.92456055 58.45043945 C83.99335742 63.01610385 79.00693471 67.51752326 74 72 C72.37433069 73.45758719 70.74934153 74.91593328 69.125 76.375 C68.31289062 77.10332031 67.50078125 77.83164062 66.6640625 78.58203125 C64.68546824 80.37785214 62.72419317 82.18612984 60.7734375 84.01171875 C60.22929199 84.51848145 59.68514648 85.02524414 59.12451172 85.54736328 C58.05713667 86.54287419 56.99352731 87.54244092 55.93408203 88.54638672 C52.22327163 92 52.22327163 92 50 92 C54.31303009 97.24133126 58.92826528 101.8498112 64.015625 106.3359375 C67.64137898 109.54639593 71.16059065 112.86929851 74.6875 116.1875 C75.37038086 116.82929199 76.05326172 117.47108398 76.75683594 118.13232422 C78.15054024 119.44222365 79.54409442 120.75228281 80.9375 122.0625 C84.18184897 125.11022176 87.4336088 128.14997144 90.6875 131.1875 C91.30786133 131.76661133 91.92822266 132.34572266 92.56738281 132.94238281 C97.03498452 137.10885076 101.52248364 141.25326892 106.01635742 145.39135742 C111.05841598 150.04066777 116.0569461 154.73586364 121.05615234 159.43115234 C125.20755376 163.32738959 129.37457674 167.20556091 133.5625 171.0625 C135.13523529 172.51286465 136.70778993 173.96342488 138.28027344 175.4140625 C139.51483897 176.5525829 140.74992651 177.69053734 141.98535156 178.828125 C144.05563505 180.73647062 146.12190165 182.64908543 148.1875 184.5625 C148.835979 185.15877197 149.48445801 185.75504395 150.15258789 186.36938477 C150.75578857 186.92940186 151.35898926 187.48941895 151.98046875 188.06640625 C152.78327271 188.8080603 152.78327271 188.8080603 153.60229492 189.56469727 C155 191 155 191 157 194 C125.95824382 197.12716159 125.95824382 197.12716159 117.015625 190.23828125 C113.16170034 186.57149244 109.91738193 182.5184286 106.77246094 178.23779297 C104.45868295 175.31656859 101.81167169 173.04459136 98.95947266 170.66430664 C95.78305255 167.96636796 92.91325904 164.9758832 90 162 C85.83599657 157.78762267 81.64690482 153.72738408 77.12109375 149.90234375 C73.52185634 146.67429841 70.17331789 143.1922629 66.77490234 139.75537109 C63.9524361 136.913276 61.12416268 134.15009878 58.0625 131.5625 C53.49041878 127.68933566 49.35736961 123.3822069 45.14624023 119.12670898 C42.05630034 116.01676678 38.95505383 112.98121218 35.625 110.125 C31.56261551 106.62294441 27.79258231 102.79258231 24 99 C23.67 130.35 23.34 161.7 23 194 C15.41 194 7.82 194 0 194 C0 129.98 0 65.96 0 0 Z " fill="#25537B" transform="translate(1820,811)"/>
<path d="M0 0 C42.24 0 84.48 0 128 0 C128 6.6 128 13.2 128 20 C93.35 20 58.7 20 23 20 C23 40.79 23 61.58 23 83 C55.34 83 87.68 83 121 83 C121 89.6 121 96.2 121 103 C88.66 103 56.32 103 23 103 C23 126.43 23 149.86 23 174 C58.31 174 93.62 174 130 174 C130 180.6 130 187.2 130 194 C87.1 194 44.2 194 0 194 C0 129.98 0 65.96 0 0 Z " fill="#FFFBF8" transform="translate(1034,811)"/>
<path d="M0 0 C0.91136719 0.41894531 1.82273437 0.83789062 2.76171875 1.26953125 C21.54541657 10.56759565 33.80804445 28.43981201 40.875 47.6875 C42.57154058 53.31344747 43.20571117 59.19558159 44 65 C36.41 65 28.82 65 21 65 C20.01 61.535 20.01 61.535 19 58 C14.59195233 43.01263792 8.1812066 30.47250721 -5.3671875 21.859375 C-21.09146218 13.5244588 -38.64897614 11.38709518 -55.9375 15.625 C-73.74304433 21.10068353 -87.03606449 31.02326464 -95.9765625 47.54296875 C-101.88152599 59.12809138 -105.52767633 71.97173864 -106 85 C-106.0515625 86.08023438 -106.103125 87.16046875 -106.15625 88.2734375 C-106.54228388 103.36092822 -104.46408524 118.26151684 -98 132 C-97.33677734 133.41152344 -97.33677734 133.41152344 -96.66015625 134.8515625 C-87.74068282 152.39401716 -74.19682241 162.70327666 -55.73046875 168.7421875 C-39.83704129 172.80600608 -21.71265189 170.59536247 -7.1875 163.3125 C8.59427956 153.93254186 15.38831538 141.09372357 20 124 C20.33 122.68 20.66 121.36 21 120 C28.59 120 36.18 120 44 120 C41.83074393 141.69256066 32.38911371 160.83786894 15.5625 175.09375 C-4.68808754 190.15821146 -28.67254718 194.53787315 -53.44921875 191.53515625 C-76.11962869 188.1179854 -97.19452555 175.30247411 -111 157 C-128.80521119 131.14585772 -134.13919356 99.32719051 -128.87255859 68.51245117 C-123.9253887 44.15285851 -110.9201677 20.82712601 -89.94921875 6.79296875 C-62.87536842 -9.66649787 -29.14684594 -14.22692201 0 0 Z " fill="#25537B" transform="translate(1315,816)"/>
<path d="M0 0 C16.96749802 14.50638254 26.24828419 33.98627353 29 56 C21.41 56 13.82 56 6 56 C5.01 52.535 5.01 52.535 4 49 C-0.40804767 34.01263792 -6.8187934 21.47250721 -20.3671875 12.859375 C-36.40773575 4.35681267 -55.25900821 2.10009893 -72.8828125 6.8984375 C-91.20240861 13.37227973 -104.35721424 24.67631381 -112.8125 42.25 C-117.45097587 52.40003026 -120.56877561 63.82410122 -121 75 C-121.0515625 76.13179687 -121.103125 77.26359375 -121.15625 78.4296875 C-121.65435188 99.39147481 -117.67090001 119.8619756 -105 137 C-104.49082031 137.70382812 -103.98164062 138.40765625 -103.45703125 139.1328125 C-94.61722138 150.26442493 -80.02541588 158.40087708 -66.07421875 160.71484375 C-47.26592479 162.45945043 -29.8966159 160.72469417 -14.34765625 149 C-2.00593006 138.60696742 2.19285498 126.22858008 6 111 C13.59 111 21.18 111 29 111 C26.83074393 132.69256066 17.38911371 151.83786894 0.5625 166.09375 C-19.68808754 181.15821146 -43.67254718 185.53787315 -68.44921875 182.53515625 C-91.32044055 179.081135 -112.73168308 166.08567386 -126.5 147.5 C-139.52095596 128.05775069 -145.44274771 106.81034484 -145.375 83.5 C-145.37445618 82.79545685 -145.37391235 82.0909137 -145.37335205 81.36502075 C-145.27174455 52.68041092 -136.17493319 27.83063922 -116.125 6.8125 C-85.57274575 -22.61911172 -33.69019241 -25.94297721 0 0 Z " fill="#25537B" transform="translate(1756,825)"/>
<path d="M0 0 C7.59 0 15.18 0 23 0 C23 57.42 23 114.84 23 174 C55.67 174 88.34 174 122 174 C122 180.6 122 187.2 122 194 C81.74 194 41.48 194 0 194 C0 129.98 0 65.96 0 0 Z " fill="#25537B" transform="translate(1394,811)"/>
<path d="M0 0 C7.59 0 15.18 0 23 0 C23 64.02 23 128.04 23 194 C15.41 194 7.82 194 0 194 C0 129.98 0 65.96 0 0 Z " fill="#25537B" transform="translate(1552,811)"/>
</svg>
