<?xml version="1.0" encoding="UTF-8"?>
<svg version="1.1" xmlns="http://www.w3.org/2000/svg" width="2000" height="2000">
<path d="M0 0 C660 0 1320 0 2000 0 C2000 660 2000 1320 2000 2000 C1340 2000 680 2000 0 2000 C0 1340 0 680 0 0 Z " fill="#011444" transform="translate(0,0)"/>
<path d="M0 0 C161.37 0 322.74 0 489 0 C489 161.04 489 322.08 489 488 C327.96 488 166.92 488 1 488 C1 552.02 1 616.04 1 682 C-63.02 682 -127.04 682 -193 682 C-193 617.98 -193 553.96 -193 488 C-236.56 488 -280.12 488 -325 488 C-325 380.42 -325 272.84 -325 162 C-217.75 162 -110.5 162 0 162 C0 108.54 0 55.08 0 0 Z " fill="#EE466E" transform="translate(590,625)"/>
<path d="M0 0 C0.33 0 0.66 0 1 0 C1 225.06 1 450.12 1 682 C-63.02 682 -127.04 682 -193 682 C-193 617.98 -193 553.96 -193 488 C-236.56 488 -280.12 488 -325 488 C-325 380.42 -325 272.84 -325 162 C-217.75 162 -110.5 162 0 162 C0 108.54 0 55.08 0 0 Z " fill="#26537B" transform="translate(590,625)"/>
<path d="M0 0 C64.02 0 128.04 0 194 0 C194 64.02 194 128.04 194 194 C129.98 194 65.96 194 0 194 C0 129.98 0 65.96 0 0 Z " fill="#FEFBF8" transform="translate(397,1113)"/>
<path d="M0 0 C15.83844295 12.12593121 25.03857472 28.42072607 28.83984375 47.82421875 C29.14505096 50.28237411 29.26201185 52.67558529 29.31640625 55.15234375 C29.36667969 56.35246094 29.41695312 57.55257813 29.46875 58.7890625 C30.14255283 80.96749987 23.09431295 101.55136819 8.31640625 118.15234375 C-4.06413213 130.99812157 -20.77054505 137.09770539 -38.37353516 137.44482422 C-48.1453637 137.51292637 -56.587934 137.11933666 -65.68359375 133.15234375 C-67.19953125 132.51619141 -67.19953125 132.51619141 -68.74609375 131.8671875 C-87.67650688 123.19879679 -98.04670913 108.11865693 -105.78125 89.51171875 C-106.53546104 87.40447585 -107.14567587 85.32423775 -107.68359375 83.15234375 C-107.88597656 82.38792969 -108.08835937 81.62351562 -108.296875 80.8359375 C-113.05004045 59.65686694 -109.12276772 36.47399891 -97.7421875 18.09375 C-87.43150815 3.36141309 -73.24085119 -7.08224871 -55.51171875 -11.26953125 C-35.85235077 -14.23849703 -16.59764206 -11.42748863 0 0 Z " fill="#021544" transform="translate(820.68359375,1234.84765625)"/>
<path d="M0 0 C5.94 0 11.88 0 18 0 C23.76951812 6.81220212 23.76951812 6.81220212 25.46875 10.28515625 C28.27770355 15.68390071 31.71264986 20.5757124 35.1875 25.5625 C36.48488886 27.45839401 37.78044114 29.35554605 39.07421875 31.25390625 C39.72438965 32.20539551 40.37456055 33.15688477 41.04443359 34.13720703 C44.19948922 38.75595638 47.34955299 43.37810648 50.5 48 C51.74997473 49.83335056 52.99997476 51.66668387 54.25 53.5 C61.75 64.5 61.75 64.5 63.62646484 67.25219727 C64.87152138 69.07824774 66.11663818 70.90425712 67.36181641 72.73022461 C70.56295683 77.42464381 73.76292056 82.11985855 76.9609375 86.81640625 C77.61642578 87.77869141 78.27191406 88.74097656 78.94726562 89.73242188 C80.178134 91.5394414 81.40863969 93.34670805 82.63867188 95.15429688 C87.39012671 102.12846617 92.19602418 109.06092381 97 116 C97.33 77.72 97.66 39.44 98 0 C103.28 0 108.56 0 114 0 C114 47.85 114 95.7 114 145 C96 145 96 145 90.61328125 139.6484375 C89.31439209 137.80776978 89.31439209 137.80776978 88.42480469 136.16259766 C88.08010132 135.54539856 87.73539795 134.92819946 87.38024902 134.29229736 C87.02789185 133.65958923 86.67553467 133.0268811 86.3125 132.375 C85.52785556 131.08363504 84.73640129 129.79638525 83.93847656 128.51318359 C82.33618651 125.92286539 80.76595168 123.31721803 79.21923828 120.69335938 C76.1374157 115.50548829 72.69890063 110.57332371 69.25 105.625 C68.03454801 103.84765905 66.820993 102.0690193 65.609375 100.2890625 C65.01576172 99.41926758 64.42214844 98.54947266 63.81054688 97.65332031 C60.70564975 93.10315553 57.60295783 88.55148739 54.5 84 C53.2500101 82.16665978 52.00001011 80.33332644 50.75 78.5 C39.5 62 28.25 45.5 17 29 C16.67 67.28 16.34 105.56 16 145 C10.72 145 5.44 145 0 145 C0 97.15 0 49.3 0 0 Z " fill="#FBF8F6" transform="translate(877,1225)"/>
<path d="M0 0 C15.83844295 12.12593121 25.03857472 28.42072607 28.83984375 47.82421875 C29.14505096 50.28237411 29.26201185 52.67558529 29.31640625 55.15234375 C29.36667969 56.35246094 29.41695312 57.55257813 29.46875 58.7890625 C30.14255283 80.96749987 23.09431295 101.55136819 8.31640625 118.15234375 C-4.06413213 130.99812157 -20.77054505 137.09770539 -38.37353516 137.44482422 C-48.1453637 137.51292637 -56.587934 137.11933666 -65.68359375 133.15234375 C-67.19953125 132.51619141 -67.19953125 132.51619141 -68.74609375 131.8671875 C-87.67650688 123.19879679 -98.04670913 108.11865693 -105.78125 89.51171875 C-106.53546104 87.40447585 -107.14567587 85.32423775 -107.68359375 83.15234375 C-107.88597656 82.38792969 -108.08835937 81.62351562 -108.296875 80.8359375 C-113.05004045 59.65686694 -109.12276772 36.47399891 -97.7421875 18.09375 C-87.43150815 3.36141309 -73.24085119 -7.08224871 -55.51171875 -11.26953125 C-35.85235077 -14.23849703 -16.59764206 -11.42748863 0 0 Z M-79.68359375 20.15234375 C-91.24276003 34.5787251 -94.21602971 53.14369524 -92.68359375 71.15234375 C-90.18201523 87.69854447 -83.79370301 102.31884029 -70.68359375 113.15234375 C-61.53986181 119.77173252 -52.62542832 122.7198324 -41.37109375 122.58984375 C-40.44901123 122.58227051 -39.52692871 122.57469727 -38.5769043 122.56689453 C-25.49201441 122.25159598 -14.25834192 117.48402107 -4.55859375 108.65234375 C8.62622145 94.58676154 12.92774761 75.55692702 12.58984375 56.73828125 C11.96467994 42.07478556 6.31971918 27.59809965 -3.80859375 16.859375 C-15.09001435 6.58858166 -28.43077269 2.65594354 -43.45703125 2.97265625 C-58.02981909 3.78421586 -69.77849012 9.30144029 -79.68359375 20.15234375 Z " fill="#FAF7F5" transform="translate(820.68359375,1234.84765625)"/>
<path d="M0 0 C31.35 0 62.7 0 95 0 C95 4.95 95 9.9 95 15 C68.93 15 42.86 15 16 15 C16 30.51 16 46.02 16 62 C40.42 62 64.84 62 90 62 C90 66.95 90 71.9 90 77 C65.58 77 41.16 77 16 77 C16 94.82 16 112.64 16 131 C42.73 131 69.46 131 97 131 C97 135.62 97 140.24 97 145 C64.99 145 32.98 145 0 145 C0 97.15 0 49.3 0 0 Z " fill="#FBF8F6" transform="translate(1026,1225)"/>
<path d="M0 0 C5.28 0 10.56 0 16 0 C16.33 22.11 16.66 44.22 17 67 C21.95 62.38 26.9 57.76 32 53 C38 47.5 38 47.5 40.90625 44.84375 C44.45977503 41.58635206 47.97942534 38.29292446 51.5 35 C56.97598031 29.87882884 62.48013395 24.79112088 68.015625 19.734375 C70.15926803 17.77439081 72.29297251 15.80410969 74.421875 13.828125 C74.9979248 13.29396973 75.57397461 12.75981445 76.16748047 12.20947266 C77.26660952 11.18954879 78.36467774 10.16847988 79.46142578 9.14599609 C80.47386383 8.2071899 81.49530188 7.27798822 82.52587891 6.35913086 C83.96525677 5.03203305 85.30548334 3.59988843 86.640625 2.16796875 C91.62366407 -1.04782972 96.08385271 -0.54428853 101.875 -0.3125 C103.47988281 -0.27866211 103.47988281 -0.27866211 105.1171875 -0.24414062 C107.74624407 -0.18545633 110.37238582 -0.1034118 113 0 C112.24332031 0.75539063 111.48664063 1.51078125 110.70703125 2.2890625 C109.21980918 3.77843063 107.7350409 5.27031782 106.26171875 6.7734375 C102.7623103 10.33362972 99.13870209 13.66647785 95.359375 16.92578125 C92.40135527 19.52629197 89.5131049 22.19734226 86.625 24.875 C81.12847057 29.96791878 75.58297567 35.00182047 70 40 C64.07909187 45.30873023 58.18717729 50.6460614 52.34277344 56.03881836 C48.81760977 59.28208376 45.21840254 62.41688735 41.5234375 65.46484375 C39.82772287 67.17360234 39.02679881 68.83917865 38 71 C46.33581842 78.86845958 54.67629924 86.73001263 63.11401367 94.48925781 C67.43424656 98.46646648 71.71996101 102.47960319 76 106.5 C80.83539079 111.0415019 85.68294579 115.56847215 90.5625 120.0625 C91.60421212 121.02338822 92.64587832 121.98432623 93.6875 122.9453125 C95.44150637 124.56349033 97.19644073 126.18062725 98.953125 127.79589844 C100.99275856 129.67302302 103.02794341 131.55487539 105.0625 133.4375 C105.69422119 134.01701416 106.32594238 134.59652832 106.97680664 135.19360352 C110.29602431 138.27262938 113.2735446 141.36245975 116 145 C107.14104044 146.49102116 96.98718356 148.10592349 89.02929688 143.14990234 C83.4562953 138.45023802 78.77401937 133.01647565 74.12109375 127.42529297 C71.59007359 124.5312835 68.84129096 122.09633838 65.90234375 119.62915039 C62.75485347 116.93366751 59.89694834 113.95921306 57 111 C51.65631132 105.58400699 51.65631132 105.58400699 46 100.5 C41.4492896 96.65543432 37.34344439 92.36827888 33.15698242 88.13745117 C29.416645 84.37278305 25.61634818 80.7485498 21.55078125 77.33203125 C19.96205778 75.96740983 18.4809176 74.4809176 17 73 C16.67 96.76 16.34 120.52 16 145 C10.72 145 5.44 145 0 145 C0 97.15 0 49.3 0 0 Z " fill="#25537B" transform="translate(1615,1225)"/>
<path d="M0 0 C0.83402344 0.25523438 1.66804688 0.51046875 2.52734375 0.7734375 C16.76851918 5.67798133 27.17056475 16.82088461 34.421875 29.625 C37.46974859 36.14322471 40 43.77561393 40 51 C34.39 51 28.78 51 23 51 C22.62875 49.246875 22.2575 47.49375 21.875 45.6875 C19.4689725 36.15333496 15.13403506 26.90282405 7 21 C-5.92142332 13.41171131 -19.55972227 10.80958927 -34.38671875 13.6484375 C-48.01833172 17.81810735 -58.50039278 26.08520604 -65.25 38.625 C-74.09428802 57.76345931 -74.33916495 78.24252716 -67.8125 98.1875 C-62.89991601 111.09198448 -54.76223459 120.49207024 -42.25 126.4375 C-35.19997907 129.56232812 -29.29664823 130.18157848 -21.6875 130.1875 C-20.46256836 130.20586914 -20.46256836 130.20586914 -19.21289062 130.22460938 C-7.50064139 130.25260678 3.43869601 126.31849071 12.11328125 118.27734375 C18.02914311 111.13666577 21.58942059 102.09040066 23 93 C28.61 93 34.22 93 40 93 C38.45277144 105.37782845 34.79598387 115.25065999 27 125 C26.37867188 125.825 25.75734375 126.65 25.1171875 127.5 C16.67684763 137.46645298 3.77146755 143.82521791 -9 146 C-28.87082628 147.28664234 -46.71945117 144.93876797 -62.99609375 132.7578125 C-65.45138291 130.59775598 -67.73940423 128.36162798 -70 126 C-70.62003906 125.41089844 -71.24007813 124.82179688 -71.87890625 124.21484375 C-81.97386387 113.93921575 -86.1491745 99.72261767 -89 86 C-89.1743457 85.3611084 -89.34869141 84.7222168 -89.52832031 84.06396484 C-93.91749019 64.85793889 -87.99391127 43.39536495 -78 27 C-75.86239323 23.78445477 -73.58452141 20.86505837 -71 18 C-70.49339844 17.401875 -69.98679687 16.80375 -69.46484375 16.1875 C-52.62149116 -2.3526031 -23.21112399 -7.95612298 0 0 Z " fill="#25527B" transform="translate(1548,1226)"/>
<path d="M0 0 C9.24638543 8.95516069 16.38703615 20.6023527 19.0625 33.25 C19.0625 35.56 19.0625 37.87 19.0625 40.25 C13.7825 40.25 8.5025 40.25 3.0625 40.25 C2.381875 37.81625 1.70125 35.3825 1 32.875 C-2.34079023 21.83552691 -7.81635269 13.25244698 -17.9375 7.25 C-21.53952551 5.6662676 -25.1761692 4.39689759 -28.9375 3.25 C-30.4225 2.755 -30.4225 2.755 -31.9375 2.25 C-48.18407156 0.73192236 -61.72045759 3.66954076 -74.83203125 13.69921875 C-84.61028719 22.46212532 -91.25010283 37.06500521 -92.12402344 50.01367188 C-92.89516447 69.80841609 -91.64807599 88.22587483 -78.3125 103.9375 C-77.2115582 105.06565609 -76.08860285 106.17307323 -74.9375 107.25 C-73.5453125 108.5803125 -73.5453125 108.5803125 -72.125 109.9375 C-59.48756455 119.10583552 -47.1104663 120.36785403 -31.9375 119.25 C-21.5386279 117.59539598 -12.68454538 112.84567919 -5.83984375 104.77734375 C-0.93031885 97.69970594 1.01690563 90.51420124 3.0625 82.25 C8.6725 82.25 14.2825 82.25 20.0625 82.25 C18.33139517 99.56104829 9.95035653 112.99829883 -3.3125 124.0625 C-14.41706273 132.27022028 -27.16811645 135.81477644 -40.8125 135.625 C-42.40457275 135.6086853 -42.40457275 135.6086853 -44.02880859 135.59204102 C-62.48004669 135.21597748 -77.82824283 128.24784706 -90.9375 115.25 C-107.36745896 96.57278222 -111.09622057 74.35567936 -109.9375 50.25 C-108.28588321 31.00108446 -99.56057379 14.89716832 -85.76171875 1.60546875 C-61.55040306 -18.58737131 -24.86599081 -19.53342401 0 0 Z " fill="#25527B" transform="translate(1248.9375,1236.75)"/>
<path d="M0 0 C5.28 0 10.56 0 16 0 C16 43.23 16 86.46 16 131 C40.75 131 65.5 131 91 131 C91 135.62 91 140.24 91 145 C60.97 145 30.94 145 0 145 C0 97.15 0 49.3 0 0 Z " fill="#25537B" transform="translate(1296,1225)"/>
<path d="M0 0 C5.61 0 11.22 0 17 0 C17 47.85 17 95.7 17 145 C11.39 145 5.78 145 0 145 C0 97.15 0 49.3 0 0 Z " fill="#24527A" transform="translate(1414,1225)"/>
</svg>
