<?xml version="1.0" encoding="UTF-8"?>
<svg version="1.1" xmlns="http://www.w3.org/2000/svg" width="2000" height="1678">
<path d="M0 0 C388.41 0 776.82 0 1177 0 C1177 388.41 1177 776.82 1177 1177 C788.92 1177 400.84 1177 1 1177 C1 1331.11 1 1485.22 1 1644 C-153.44 1644 -307.88 1644 -467 1644 C-467 1489.89 -467 1335.78 -467 1177 C-571.94 1177 -676.88 1177 -785 1177 C-785 917.95 -785 658.9 -785 392 C-525.95 392 -266.9 392 0 392 C0 262.64 0 133.28 0 0 Z " fill="#EE466E" transform="translate(804,17)"/>
<path d="M0 0 C259.05 0 518.1 0 785 0 C785 259.05 785 518.1 785 785 C525.95 785 266.9 785 0 785 C0 525.95 0 266.9 0 0 Z " fill="#26547C" transform="translate(19,409)"/>
<path d="M0 0 C154.44 0 308.88 0 468 0 C468 154.11 468 308.22 468 467 C313.56 467 159.12 467 0 467 C0 312.89 0 158.78 0 0 Z " fill="#FFFCF8" transform="translate(337,1194)"/>
</svg>
